<svg width="178" height="42" viewBox="0 0 178 42" fill="none" xmlns="http://www.w3.org/2000/svg">
<path d="M157.108 0.417969C168.416 0.418191 177.582 9.58435 177.582 20.8916V41.582H20.8916C9.58435 41.5818 0.418193 32.4156 0.417969 21.1084V0.417969H157.108Z" fill="white" fill-opacity="0.6"/>
<path d="M157.108 0.417969C168.416 0.418191 177.582 9.58435 177.582 20.8916V41.582H20.8916C9.58435 41.5818 0.418193 32.4156 0.417969 21.1084V0.417969H157.108Z" stroke="#CECECE" stroke-width="0.835681"/>
<path d="M0.835449 0.00012207H22.3542C34.008 0.00012207 43.4552 9.44734 43.4552 21.1011V41.7842H21.9364C10.2827 41.7842 0.835449 32.3369 0.835449 20.6832V0.00012207Z" fill="#17313B"/>
<g clip-path="url(#clip0_3335_561)">
<g clip-path="url(#clip1_3335_561)">
<path d="M26.0673 25.2605C25.0227 26.2101 23.5982 26.7799 22.0788 26.7799C18.6601 26.7799 16.1911 24.3109 16.1911 20.8922C16.1911 17.4735 18.6601 15.0994 22.0788 15.0994C23.5982 15.0994 25.0227 15.5742 26.0673 16.5238L26.827 17.1886L30.0558 13.9598L29.2011 13.2001C27.3968 11.3958 24.8328 10.4462 22.0788 10.4462C16.0011 10.4462 11.6328 14.8145 11.6328 20.7972C11.6328 26.7799 16.0961 31.3382 22.0788 31.3382C24.8328 31.3382 27.3968 30.3885 29.2961 28.5842L30.0558 27.8245L26.827 24.5958L26.0673 25.2605Z" fill="white"/>
<path d="M21.8891 24.4059C23.8297 24.4059 25.4028 22.8327 25.4028 20.8922C25.4028 18.9517 23.8297 17.3785 21.8891 17.3785C19.9486 17.3785 18.3755 18.9517 18.3755 20.8922C18.3755 22.8327 19.9486 24.4059 21.8891 24.4059Z" fill="#FF3D2E"/>
</g>
</g>
<path d="M54.7091 14.1943L53.5013 13.8842L54.0971 7.96752H60.1933V9.36304H55.3783L55.0193 12.5948C55.2369 12.4696 55.5116 12.3527 55.8435 12.2439C56.1808 12.135 56.5671 12.0806 57.0024 12.0806C57.5519 12.0806 58.0443 12.1758 58.4795 12.3663C58.9148 12.5512 59.2847 12.8178 59.5894 13.166C59.8995 13.5142 60.1362 13.9332 60.2994 14.4228C60.4626 14.9125 60.5442 15.4593 60.5442 16.0632C60.5442 16.6344 60.4653 17.1595 60.3076 17.6382C60.1552 18.117 59.924 18.5359 59.6139 18.895C59.3038 19.2487 58.912 19.5234 58.4387 19.7193C57.9708 19.9151 57.4186 20.0131 56.782 20.0131C56.3033 20.0131 55.849 19.9478 55.4191 19.8172C54.9948 19.6812 54.6139 19.4772 54.2766 19.2051C53.9447 18.9277 53.6727 18.5849 53.4605 18.1769C53.2538 17.7634 53.1232 17.2792 53.0688 16.7242H54.5051C54.5704 17.1703 54.701 17.5457 54.8968 17.8504C55.0927 18.1551 55.3484 18.3863 55.664 18.5441C55.985 18.6964 56.3577 18.7726 56.782 18.7726C57.1411 18.7726 57.4594 18.71 57.7369 18.5849C58.0143 18.4598 58.2483 18.2802 58.4387 18.0463C58.6291 17.8123 58.7733 17.5294 58.8712 17.1975C58.9746 16.8657 59.0263 16.493 59.0263 16.0795C59.0263 15.7041 58.9746 15.3559 58.8712 15.0349C58.7679 14.7139 58.6128 14.4337 58.4061 14.1943C58.2048 13.9549 57.9572 13.7699 57.6634 13.6394C57.3696 13.5034 57.0323 13.4354 56.6515 13.4354C56.1455 13.4354 55.7619 13.5034 55.5008 13.6394C55.245 13.7754 54.9812 13.9604 54.7091 14.1943ZM62.3886 19.0501C62.3886 18.7944 62.4675 18.5795 62.6253 18.4054C62.7885 18.2258 63.0224 18.1361 63.3271 18.1361C63.6318 18.1361 63.863 18.2258 64.0208 18.4054C64.184 18.5795 64.2656 18.7944 64.2656 19.0501C64.2656 19.3003 64.184 19.5125 64.0208 19.6866C63.863 19.8607 63.6318 19.9478 63.3271 19.9478C63.0224 19.9478 62.7885 19.8607 62.6253 19.6866C62.4675 19.5125 62.3886 19.3003 62.3886 19.0501ZM74.0669 12.962V14.7737C74.0669 15.7476 73.9799 16.5692 73.8058 17.2384C73.6317 17.9075 73.3814 18.4462 73.055 18.8542C72.7285 19.2623 72.3341 19.5588 71.8716 19.7438C71.4146 19.9233 70.8977 20.0131 70.321 20.0131C69.864 20.0131 69.4424 19.9559 69.0561 19.8417C68.6698 19.7274 68.3216 19.5452 68.0115 19.2949C67.7068 19.0392 67.4457 18.7073 67.228 18.2993C67.0104 17.8912 66.8445 17.3961 66.7302 16.814C66.616 16.2318 66.5588 15.5518 66.5588 14.7737V12.962C66.5588 11.9881 66.6459 11.172 66.82 10.5137C66.9995 9.85542 67.2525 9.32768 67.579 8.93051C67.9054 8.5279 68.2971 8.23955 68.7541 8.06545C69.2166 7.89135 69.7334 7.8043 70.3047 7.8043C70.7672 7.8043 71.1915 7.86143 71.5778 7.97568C71.9695 8.08449 72.3177 8.26131 72.6224 8.50614C72.9271 8.74553 73.1855 9.06652 73.3977 9.46913C73.6153 9.8663 73.7813 10.3532 73.8955 10.9299C74.0098 11.5066 74.0669 12.184 74.0669 12.962ZM72.549 15.0186V12.709C72.549 12.1758 72.5163 11.708 72.451 11.3053C72.3912 10.8973 72.3014 10.5491 72.1817 10.2607C72.062 9.97239 71.9097 9.73844 71.7247 9.5589C71.5452 9.37936 71.3357 9.24879 71.0963 9.16718C70.8624 9.08013 70.5985 9.0366 70.3047 9.0366C69.9456 9.0366 69.6274 9.10461 69.3499 9.24062C69.0724 9.3712 68.8385 9.58066 68.648 9.86902C68.4631 10.1574 68.3216 10.5355 68.2237 11.0034C68.1257 11.4713 68.0768 12.0398 68.0768 12.709V15.0186C68.0768 15.5518 68.1067 16.0224 68.1665 16.4304C68.2318 16.8385 68.327 17.1921 68.4522 17.4913C68.5773 17.7851 68.7297 18.0272 68.9092 18.2177C69.0887 18.4081 69.2955 18.5495 69.5294 18.642C69.7688 18.7291 70.0327 18.7726 70.321 18.7726C70.691 18.7726 71.0147 18.7019 71.2922 18.5604C71.5697 18.419 71.8009 18.1986 71.9859 17.8994C72.1763 17.5947 72.3177 17.2057 72.4102 16.7324C72.5027 16.2536 72.549 15.6823 72.549 15.0186Z" fill="#17313B"/>
<g clip-path="url(#clip2_3335_561)">
<mask id="mask0_3335_561" style="mask-type:alpha" maskUnits="userSpaceOnUse" x="81" y="7" width="15" height="14">
<g clip-path="url(#clip3_3335_561)">
<g clip-path="url(#clip4_3335_561)">
<path d="M88.2898 9.5046L89.3483 11.9782L89.6157 12.5911L90.2842 12.6579L92.9919 12.8808L90.9305 14.697L90.4291 15.1315L90.5851 15.7889L91.1979 18.4297L88.8692 17.0146L88.2898 16.6692L87.7104 17.0146L85.3816 18.4297L85.9944 15.7889L86.1281 15.1315L85.6156 14.697L83.5877 12.903L86.2953 12.6802L86.9638 12.6133L87.2424 11.9782L88.3566 9.48232M88.2898 7.52126C88.1804 7.51785 88.0726 7.54807 87.981 7.60785C87.8893 7.66762 87.8182 7.75407 87.7772 7.85553L86.195 11.5659L82.1837 11.9114C82.0756 11.9209 81.9727 11.9619 81.8875 12.0292C81.8023 12.0965 81.7387 12.1872 81.7044 12.2901C81.67 12.3931 81.6666 12.5038 81.6943 12.6088C81.7221 12.7137 81.7798 12.8082 81.8606 12.8808L84.9136 15.5326L83.9888 19.4659C83.9684 19.5484 83.9671 19.6345 83.9851 19.7175C84.0031 19.8006 84.0398 19.8784 84.0925 19.9451C84.1452 20.0118 84.2125 20.0655 84.2891 20.1022C84.3658 20.1389 84.4498 20.1575 84.5348 20.1567C84.6377 20.1544 84.738 20.1235 84.8245 20.0676L88.2898 17.9728L91.755 20.0676C91.8478 20.128 91.9568 20.1588 92.0675 20.1559C92.1782 20.1529 92.2854 20.1164 92.3748 20.0511C92.4643 19.9859 92.5318 19.8949 92.5683 19.7904C92.6049 19.6859 92.6088 19.5727 92.5796 19.4659L91.6993 15.5326L94.7078 12.8808C94.7934 12.8114 94.856 12.7178 94.8875 12.6122C94.9189 12.5067 94.9177 12.394 94.8839 12.2892C94.8502 12.1843 94.7855 12.0921 94.6984 12.0247C94.6113 11.9572 94.5058 11.9177 94.3958 11.9114L90.3734 11.5659L88.8023 7.85553C88.7588 7.75587 88.6871 7.67112 88.596 7.61172C88.505 7.55232 88.3985 7.52088 88.2898 7.52126Z" fill="black"/>
</g>
</g>
</mask>
<g mask="url(#mask0_3335_561)">
<rect x="81.6709" y="7.52124" width="13.3709" height="13.3709" fill="#E62415"/>
</g>
</g>
<g clip-path="url(#clip5_3335_561)">
<mask id="mask1_3335_561" style="mask-type:alpha" maskUnits="userSpaceOnUse" x="81" y="7" width="15" height="14">
<g clip-path="url(#clip6_3335_561)">
<g clip-path="url(#clip7_3335_561)">
<path d="M88.2898 17.9728L84.8245 20.0676C84.7307 20.1257 84.6219 20.1546 84.5117 20.1508C84.4015 20.147 84.2949 20.1106 84.2054 20.0462C84.116 19.9817 84.0476 19.8922 84.009 19.7889C83.9705 19.6856 83.9634 19.5732 83.9888 19.4659L84.9136 15.5326L81.8606 12.8807C81.7798 12.8082 81.7221 12.7137 81.6943 12.6087C81.6666 12.5038 81.67 12.3931 81.7044 12.2901C81.7387 12.1871 81.8023 12.0964 81.8875 12.0292C81.9727 11.9619 82.0756 11.9209 82.1837 11.9113L86.195 11.5659L87.7772 7.8555C87.82 7.755 87.8914 7.6693 87.9826 7.60907C88.0737 7.54884 88.1805 7.51672 88.2898 7.51672C88.399 7.51672 88.5058 7.54884 88.597 7.60907C88.6881 7.6693 88.7595 7.755 88.8023 7.8555L90.3734 11.5659L94.3958 11.9113C94.5058 11.9177 94.6113 11.9572 94.6984 12.0246C94.7855 12.0921 94.8502 12.1843 94.8839 12.2891C94.9177 12.394 94.9189 12.5066 94.8875 12.6122C94.856 12.7178 94.7934 12.8114 94.7078 12.8807L91.6993 15.5326L92.613 19.4659C92.6364 19.5716 92.6285 19.6819 92.5902 19.7832C92.5519 19.8845 92.4849 19.9725 92.3975 20.0363C92.31 20.1001 92.2058 20.1371 92.0976 20.1427C91.9895 20.1482 91.882 20.1221 91.7885 20.0676L88.2898 17.9728Z" fill="black"/>
</g>
</g>
</mask>
<g mask="url(#mask1_3335_561)">
<rect x="81.6709" y="7.52124" width="13.3709" height="13.3709" fill="#E62415"/>
</g>
</g>
<g clip-path="url(#clip8_3335_561)">
<mask id="mask2_3335_561" style="mask-type:alpha" maskUnits="userSpaceOnUse" x="98" y="7" width="14" height="14">
<g clip-path="url(#clip9_3335_561)">
<g clip-path="url(#clip10_3335_561)">
<path d="M105.003 9.5046L106.062 11.9782L106.329 12.5911L106.998 12.6579L109.705 12.8808L107.644 14.697L107.142 15.1315L107.298 15.7889L107.911 18.4297L105.583 17.0146L105.003 16.6692L104.424 17.0146L102.095 18.4297L102.708 15.7889L102.842 15.1315L102.329 14.697L100.301 12.903L103.009 12.6802L103.677 12.6133L103.956 11.9782L105.07 9.48232M105.003 7.52126C104.894 7.51785 104.786 7.54807 104.694 7.60785C104.603 7.66762 104.532 7.75407 104.491 7.85553L102.908 11.5659L98.8971 11.9114C98.789 11.9209 98.686 11.9619 98.6009 12.0292C98.5157 12.0965 98.4521 12.1872 98.4177 12.2901C98.3834 12.3931 98.3799 12.5038 98.4077 12.6088C98.4354 12.7137 98.4932 12.8082 98.574 12.8808L101.627 15.5326L100.702 19.4659C100.682 19.5484 100.681 19.6345 100.698 19.7175C100.716 19.8006 100.753 19.8784 100.806 19.9451C100.859 20.0118 100.926 20.0655 101.002 20.1022C101.079 20.1389 101.163 20.1575 101.248 20.1567C101.351 20.1544 101.451 20.1235 101.538 20.0676L105.003 17.9728L108.468 20.0676C108.561 20.128 108.67 20.1588 108.781 20.1559C108.892 20.1529 108.999 20.1164 109.088 20.0511C109.178 19.9859 109.245 19.8949 109.282 19.7904C109.318 19.6859 109.322 19.5727 109.293 19.4659L108.413 15.5326L111.421 12.8808C111.507 12.8114 111.569 12.7178 111.601 12.6122C111.632 12.5067 111.631 12.394 111.597 12.2892C111.564 12.1843 111.499 12.0921 111.412 12.0247C111.325 11.9572 111.219 11.9177 111.109 11.9114L107.087 11.5659L105.516 7.85553C105.472 7.75587 105.4 7.67112 105.309 7.61172C105.218 7.55232 105.112 7.52088 105.003 7.52126Z" fill="black"/>
</g>
</g>
</mask>
<g mask="url(#mask2_3335_561)">
<rect x="98.3848" y="7.52124" width="13.3709" height="13.3709" fill="#E62415"/>
</g>
</g>
<g clip-path="url(#clip11_3335_561)">
<mask id="mask3_3335_561" style="mask-type:alpha" maskUnits="userSpaceOnUse" x="98" y="7" width="14" height="14">
<g clip-path="url(#clip12_3335_561)">
<g clip-path="url(#clip13_3335_561)">
<path d="M105.003 17.9728L101.538 20.0676C101.444 20.1257 101.335 20.1546 101.225 20.1508C101.115 20.147 101.008 20.1106 100.919 20.0462C100.829 19.9817 100.761 19.8922 100.722 19.7889C100.684 19.6856 100.677 19.5732 100.702 19.4659L101.627 15.5326L98.574 12.8807C98.4932 12.8082 98.4354 12.7137 98.4077 12.6087C98.3799 12.5038 98.3834 12.3931 98.4177 12.2901C98.4521 12.1871 98.5157 12.0964 98.6009 12.0292C98.686 11.9619 98.789 11.9209 98.8971 11.9113L102.908 11.5659L104.491 7.8555C104.533 7.755 104.605 7.6693 104.696 7.60907C104.787 7.54884 104.894 7.51672 105.003 7.51672C105.112 7.51672 105.219 7.54884 105.31 7.60907C105.401 7.6693 105.473 7.755 105.516 7.8555L107.087 11.5659L111.109 11.9113C111.219 11.9177 111.325 11.9572 111.412 12.0246C111.499 12.0921 111.564 12.1843 111.597 12.2891C111.631 12.394 111.632 12.5066 111.601 12.6122C111.569 12.7178 111.507 12.8114 111.421 12.8807L108.413 15.5326L109.326 19.4659C109.35 19.5716 109.342 19.6819 109.304 19.7832C109.265 19.8845 109.198 19.9725 109.111 20.0363C109.023 20.1001 108.919 20.1371 108.811 20.1427C108.703 20.1482 108.595 20.1221 108.502 20.0676L105.003 17.9728Z" fill="black"/>
</g>
</g>
</mask>
<g mask="url(#mask3_3335_561)">
<rect x="98.3848" y="7.52124" width="13.3709" height="13.3709" fill="#E62415"/>
</g>
</g>
<g clip-path="url(#clip14_3335_561)">
<mask id="mask4_3335_561" style="mask-type:alpha" maskUnits="userSpaceOnUse" x="115" y="7" width="14" height="14">
<g clip-path="url(#clip15_3335_561)">
<g clip-path="url(#clip16_3335_561)">
<path d="M121.717 9.5046L122.775 11.9782L123.042 12.5911L123.711 12.6579L126.419 12.8808L124.357 14.697L123.856 15.1315L124.012 15.7889L124.625 18.4297L122.296 17.0146L121.717 16.6692L121.137 17.0146L118.808 18.4297L119.421 15.7889L119.555 15.1315L119.042 14.697L117.014 12.903L119.722 12.6802L120.391 12.6133L120.669 11.9782L121.783 9.48232M121.717 7.52126C121.607 7.51785 121.499 7.54807 121.408 7.60785C121.316 7.66762 121.245 7.75407 121.204 7.85553L119.622 11.5659L115.61 11.9114C115.502 11.9209 115.399 11.9619 115.314 12.0292C115.229 12.0965 115.165 12.1872 115.131 12.2901C115.097 12.3931 115.093 12.5038 115.121 12.6088C115.149 12.7137 115.207 12.8082 115.287 12.8808L118.34 15.5326L117.416 19.4659C117.395 19.5484 117.394 19.6345 117.412 19.7175C117.43 19.8006 117.467 19.8784 117.519 19.9451C117.572 20.0118 117.639 20.0655 117.716 20.1022C117.793 20.1389 117.877 20.1575 117.962 20.1567C118.064 20.1544 118.165 20.1235 118.251 20.0676L121.717 17.9728L125.182 20.0676C125.275 20.128 125.384 20.1588 125.494 20.1559C125.605 20.1529 125.712 20.1164 125.802 20.0511C125.891 19.9859 125.959 19.8949 125.995 19.7904C126.032 19.6859 126.036 19.5727 126.006 19.4659L125.126 15.5326L128.135 12.8808C128.22 12.8114 128.283 12.7178 128.314 12.6122C128.346 12.5067 128.344 12.394 128.311 12.2892C128.277 12.1843 128.212 12.0921 128.125 12.0247C128.038 11.9572 127.933 11.9177 127.823 11.9114L123.8 11.5659L122.229 7.85553C122.186 7.75587 122.114 7.67112 122.023 7.61172C121.932 7.55232 121.825 7.52088 121.717 7.52126Z" fill="black"/>
</g>
</g>
</mask>
<g mask="url(#mask4_3335_561)">
<rect x="115.098" y="7.52124" width="13.3709" height="13.3709" fill="#E62415"/>
</g>
</g>
<g clip-path="url(#clip17_3335_561)">
<mask id="mask5_3335_561" style="mask-type:alpha" maskUnits="userSpaceOnUse" x="115" y="7" width="14" height="14">
<g clip-path="url(#clip18_3335_561)">
<g clip-path="url(#clip19_3335_561)">
<path d="M121.717 17.9728L118.251 20.0676C118.158 20.1257 118.049 20.1546 117.938 20.1508C117.828 20.147 117.722 20.1106 117.632 20.0462C117.543 19.9817 117.474 19.8922 117.436 19.7889C117.397 19.6856 117.39 19.5732 117.416 19.4659L118.34 15.5326L115.287 12.8807C115.207 12.8082 115.149 12.7137 115.121 12.6087C115.093 12.5038 115.097 12.3931 115.131 12.2901C115.165 12.1871 115.229 12.0964 115.314 12.0292C115.399 11.9619 115.502 11.9209 115.61 11.9113L119.622 11.5659L121.204 7.8555C121.247 7.755 121.318 7.6693 121.409 7.60907C121.5 7.54884 121.607 7.51672 121.717 7.51672C121.826 7.51672 121.933 7.54884 122.024 7.60907C122.115 7.6693 122.186 7.755 122.229 7.8555L123.8 11.5659L127.823 11.9113C127.933 11.9177 128.038 11.9572 128.125 12.0246C128.212 12.0921 128.277 12.1843 128.311 12.2891C128.344 12.394 128.346 12.5066 128.314 12.6122C128.283 12.7178 128.22 12.8114 128.135 12.8807L125.126 15.5326L126.04 19.4659C126.063 19.5716 126.055 19.6819 126.017 19.7832C125.979 19.8845 125.912 19.9725 125.824 20.0363C125.737 20.1001 125.633 20.1371 125.524 20.1427C125.416 20.1482 125.309 20.1221 125.215 20.0676L121.717 17.9728Z" fill="black"/>
</g>
</g>
</mask>
<g mask="url(#mask5_3335_561)">
<rect x="115.098" y="7.52124" width="13.3709" height="13.3709" fill="#E62415"/>
</g>
</g>
<g clip-path="url(#clip20_3335_561)">
<mask id="mask6_3335_561" style="mask-type:alpha" maskUnits="userSpaceOnUse" x="131" y="7" width="15" height="14">
<g clip-path="url(#clip21_3335_561)">
<g clip-path="url(#clip22_3335_561)">
<path d="M138.43 9.5046L139.489 11.9782L139.756 12.5911L140.425 12.6579L143.132 12.8808L141.071 14.697L140.57 15.1315L140.726 15.7889L141.339 18.4297L139.01 17.0146L138.43 16.6692L137.851 17.0146L135.522 18.4297L136.135 15.7889L136.269 15.1315L135.756 14.697L133.728 12.903L136.436 12.6802L137.104 12.6133L137.383 11.9782L138.497 9.48232M138.43 7.52126C138.321 7.51785 138.213 7.54807 138.122 7.60785C138.03 7.66762 137.959 7.75407 137.918 7.85553L136.336 11.5659L132.324 11.9114C132.216 11.9209 132.113 11.9619 132.028 12.0292C131.943 12.0965 131.879 12.1872 131.845 12.2901C131.811 12.3931 131.807 12.5038 131.835 12.6088C131.863 12.7137 131.92 12.8082 132.001 12.8808L135.054 15.5326L134.129 19.4659C134.109 19.5484 134.108 19.6345 134.126 19.7175C134.144 19.8006 134.18 19.8784 134.233 19.9451C134.286 20.0118 134.353 20.0655 134.43 20.1022C134.506 20.1389 134.59 20.1575 134.675 20.1567C134.778 20.1544 134.879 20.1235 134.965 20.0676L138.43 17.9728L141.896 20.0676C141.988 20.128 142.097 20.1588 142.208 20.1559C142.319 20.1529 142.426 20.1164 142.515 20.0511C142.605 19.9859 142.672 19.8949 142.709 19.7904C142.746 19.6859 142.749 19.5727 142.72 19.4659L141.84 15.5326L144.848 12.8808C144.934 12.8114 144.997 12.7178 145.028 12.6122C145.06 12.5067 145.058 12.394 145.025 12.2892C144.991 12.1843 144.926 12.0921 144.839 12.0247C144.752 11.9572 144.646 11.9177 144.536 11.9114L140.514 11.5659L138.943 7.85553C138.899 7.75587 138.828 7.67112 138.737 7.61172C138.646 7.55232 138.539 7.52088 138.43 7.52126Z" fill="black"/>
</g>
</g>
</mask>
<g mask="url(#mask6_3335_561)">
<rect x="131.812" y="7.52124" width="13.3709" height="13.3709" fill="#E62415"/>
</g>
</g>
<g clip-path="url(#clip23_3335_561)">
<mask id="mask7_3335_561" style="mask-type:alpha" maskUnits="userSpaceOnUse" x="131" y="7" width="15" height="14">
<g clip-path="url(#clip24_3335_561)">
<g clip-path="url(#clip25_3335_561)">
<path d="M138.43 17.9728L134.965 20.0676C134.871 20.1257 134.763 20.1546 134.652 20.1508C134.542 20.147 134.436 20.1106 134.346 20.0462C134.257 19.9817 134.188 19.8922 134.15 19.7889C134.111 19.6856 134.104 19.5732 134.129 19.4659L135.054 15.5326L132.001 12.8807C131.92 12.8082 131.863 12.7137 131.835 12.6087C131.807 12.5038 131.811 12.3931 131.845 12.2901C131.879 12.1871 131.943 12.0964 132.028 12.0292C132.113 11.9619 132.216 11.9209 132.324 11.9113L136.336 11.5659L137.918 7.8555C137.961 7.755 138.032 7.6693 138.123 7.60907C138.214 7.54884 138.321 7.51672 138.43 7.51672C138.54 7.51672 138.646 7.54884 138.738 7.60907C138.829 7.6693 138.9 7.755 138.943 7.8555L140.514 11.5659L144.536 11.9113C144.646 11.9177 144.752 11.9572 144.839 12.0246C144.926 12.0921 144.991 12.1843 145.025 12.2891C145.058 12.394 145.06 12.5066 145.028 12.6122C144.997 12.7178 144.934 12.8114 144.848 12.8807L141.84 15.5326L142.754 19.4659C142.777 19.5716 142.769 19.6819 142.731 19.7832C142.693 19.8845 142.626 19.9725 142.538 20.0363C142.451 20.1001 142.346 20.1371 142.238 20.1427C142.13 20.1482 142.023 20.1221 141.929 20.0676L138.43 17.9728Z" fill="black"/>
</g>
</g>
</mask>
<g mask="url(#mask7_3335_561)">
<rect x="131.812" y="7.52124" width="13.3709" height="13.3709" fill="#E62415"/>
</g>
</g>
<g clip-path="url(#clip26_3335_561)">
<mask id="mask8_3335_561" style="mask-type:alpha" maskUnits="userSpaceOnUse" x="148" y="7" width="14" height="14">
<g clip-path="url(#clip27_3335_561)">
<g clip-path="url(#clip28_3335_561)">
<path d="M155.144 9.5046L156.202 11.9782L156.47 12.5911L157.138 12.6579L159.846 12.8808L157.785 14.697L157.283 15.1315L157.439 15.7889L158.052 18.4297L155.723 17.0146L155.144 16.6692L154.564 17.0146L152.236 18.4297L152.848 15.7889L152.982 15.1315L152.47 14.697L150.442 12.903L153.149 12.6802L153.818 12.6133L154.096 11.9782L155.211 9.48232M155.144 7.52126C155.034 7.51785 154.927 7.54807 154.835 7.60785C154.743 7.66762 154.672 7.75407 154.631 7.85553L153.049 11.5659L149.038 11.9114C148.93 11.9209 148.827 11.9619 148.741 12.0292C148.656 12.0965 148.593 12.1872 148.558 12.2901C148.524 12.3931 148.521 12.5038 148.548 12.6088C148.576 12.7137 148.634 12.8082 148.715 12.8808L151.768 15.5326L150.843 19.4659C150.822 19.5484 150.821 19.6345 150.839 19.7175C150.857 19.8006 150.894 19.8784 150.947 19.9451C150.999 20.0118 151.066 20.0655 151.143 20.1022C151.22 20.1389 151.304 20.1575 151.389 20.1567C151.492 20.1544 151.592 20.1235 151.678 20.0676L155.144 17.9728L158.609 20.0676C158.702 20.128 158.811 20.1588 158.922 20.1559C159.032 20.1529 159.139 20.1164 159.229 20.0511C159.318 19.9859 159.386 19.8949 159.422 19.7904C159.459 19.6859 159.463 19.5727 159.434 19.4659L158.553 15.5326L161.562 12.8808C161.647 12.8114 161.71 12.7178 161.741 12.6122C161.773 12.5067 161.772 12.394 161.738 12.2892C161.704 12.1843 161.64 12.0921 161.552 12.0247C161.465 11.9572 161.36 11.9177 161.25 11.9114L157.227 11.5659L155.656 7.85553C155.613 7.75587 155.541 7.67112 155.45 7.61172C155.359 7.55232 155.252 7.52088 155.144 7.52126Z" fill="black"/>
</g>
</g>
</mask>
<g mask="url(#mask8_3335_561)">
<rect x="148.525" y="7.52124" width="13.3709" height="13.3709" fill="#E62415"/>
</g>
</g>
<g clip-path="url(#clip29_3335_561)">
<mask id="mask9_3335_561" style="mask-type:alpha" maskUnits="userSpaceOnUse" x="148" y="7" width="14" height="14">
<g clip-path="url(#clip30_3335_561)">
<g clip-path="url(#clip31_3335_561)">
<path d="M155.144 17.9729L151.678 20.0677C151.585 20.1258 151.476 20.1548 151.366 20.1509C151.256 20.1471 151.149 20.1107 151.059 20.0463C150.97 19.9819 150.902 19.8923 150.863 19.789C150.824 19.6857 150.817 19.5733 150.843 19.466L151.768 15.5327L148.715 12.8808C148.634 12.8083 148.576 12.7138 148.548 12.6089C148.521 12.5039 148.524 12.3932 148.558 12.2902C148.593 12.1873 148.656 12.0966 148.741 12.0293C148.827 11.962 148.93 11.921 149.038 11.9115L153.049 11.566L154.631 7.85562C154.674 7.75512 154.745 7.66943 154.837 7.60919C154.928 7.54896 155.035 7.51685 155.144 7.51685C155.253 7.51685 155.36 7.54896 155.451 7.60919C155.542 7.66943 155.613 7.75512 155.656 7.85562L157.227 11.566L161.25 11.9115C161.36 11.9178 161.465 11.9573 161.552 12.0248C161.64 12.0922 161.704 12.1844 161.738 12.2893C161.772 12.3941 161.773 12.5067 161.741 12.6123C161.71 12.7179 161.647 12.8115 161.562 12.8808L158.553 15.5327L159.467 19.466C159.49 19.5718 159.482 19.682 159.444 19.7833C159.406 19.8846 159.339 19.9726 159.251 20.0364C159.164 20.1003 159.06 20.1372 158.952 20.1428C158.843 20.1483 158.736 20.1222 158.642 20.0677L155.144 17.9729Z" fill="black"/>
</g>
</g>
</mask>
<g mask="url(#mask9_3335_561)">
<rect x="148.525" y="7.52124" width="13.3709" height="13.3709" fill="#E62415"/>
</g>
</g>
<path d="M54.6194 30.963H53.1137L53.1055 30.3305H54.4725C54.6983 30.3305 54.8955 30.2925 55.0641 30.2163C55.2328 30.1401 55.3634 30.0313 55.4559 29.8899C55.5511 29.7457 55.5987 29.5743 55.5987 29.3757C55.5987 29.1581 55.5565 28.9813 55.4722 28.8453C55.3906 28.7065 55.2641 28.6059 55.0927 28.5433C54.9241 28.478 54.7091 28.4454 54.448 28.4454H53.2891V33.7418H52.5016V27.8007H54.448C54.7527 27.8007 55.0247 27.8319 55.2641 27.8945C55.5035 27.9544 55.7061 28.0496 55.8721 28.1801C56.0407 28.308 56.1686 28.4712 56.2556 28.6698C56.3427 28.8684 56.3862 29.1064 56.3862 29.3839C56.3862 29.6287 56.3237 29.8504 56.1985 30.049C56.0734 30.2449 55.8993 30.4054 55.6762 30.5305C55.4559 30.6556 55.1974 30.7359 54.9009 30.7712L54.6194 30.963ZM54.5827 33.7418H52.8036L53.2483 33.1012H54.5827C54.8329 33.1012 55.0451 33.0577 55.2192 32.9706C55.396 32.8836 55.5307 32.7611 55.6232 32.6034C55.7157 32.4429 55.7619 32.2538 55.7619 32.0362C55.7619 31.8158 55.7225 31.6254 55.6436 31.4649C55.5647 31.3044 55.4409 31.1806 55.2723 31.0936C55.1036 31.0065 54.886 30.963 54.6194 30.963H53.4972L53.5054 30.3305H55.0397L55.207 30.5591C55.4926 30.5835 55.7347 30.6651 55.9333 30.8039C56.1319 30.9399 56.2828 31.114 56.3862 31.3262C56.4923 31.5384 56.5454 31.7723 56.5454 32.028C56.5454 32.398 56.4638 32.7108 56.3005 32.9665C56.14 33.2195 55.9129 33.4127 55.6191 33.546C55.3253 33.6765 54.9798 33.7418 54.5827 33.7418ZM60.0302 32.9869V30.7141C60.0302 30.54 59.9949 30.389 59.9242 30.2612C59.8561 30.1306 59.7528 30.03 59.614 29.9592C59.4753 29.8885 59.3039 29.8531 59.0999 29.8531C58.9095 29.8531 58.7422 29.8858 58.598 29.9511C58.4565 30.0163 58.345 30.102 58.2634 30.2081C58.1845 30.3142 58.1451 30.4285 58.1451 30.5509H57.3902C57.3902 30.3931 57.431 30.2367 57.5126 30.0816C57.5942 29.9266 57.7112 29.7865 57.8635 29.6613C58.0186 29.5335 58.2036 29.4328 58.4185 29.3594C58.6361 29.2832 58.8782 29.2451 59.1448 29.2451C59.4658 29.2451 59.7487 29.2995 59.9935 29.4084C60.2411 29.5172 60.4342 29.6818 60.5729 29.9021C60.7144 30.1197 60.7851 30.3931 60.7851 30.7223V32.7788C60.7851 32.9257 60.7974 33.0821 60.8219 33.2481C60.8491 33.414 60.8885 33.5568 60.9402 33.6765V33.7418H60.1527C60.1146 33.6548 60.0847 33.5392 60.0629 33.395C60.0411 33.2481 60.0302 33.1121 60.0302 32.9869ZM60.1608 31.065L60.169 31.5955H59.4059C59.191 31.5955 58.9992 31.6132 58.8306 31.6485C58.6619 31.6812 58.5205 31.7315 58.4062 31.7995C58.292 31.8675 58.2049 31.9532 58.1451 32.0566C58.0852 32.1572 58.0553 32.2756 58.0553 32.4116C58.0553 32.5503 58.0866 32.6768 58.1491 32.7911C58.2117 32.9053 58.3056 32.9965 58.4307 33.0645C58.5586 33.1298 58.715 33.1624 58.9 33.1624C59.1312 33.1624 59.3352 33.1134 59.512 33.0155C59.6888 32.9176 59.8289 32.7979 59.9323 32.6564C60.0384 32.515 60.0955 32.3776 60.1037 32.2443L60.4261 32.6074C60.407 32.7217 60.3553 32.8482 60.271 32.9869C60.1867 33.1257 60.0738 33.259 59.9323 33.3868C59.7936 33.512 59.6276 33.6167 59.4345 33.701C59.2441 33.7826 59.0292 33.8234 58.7898 33.8234C58.4905 33.8234 58.228 33.7649 58.0023 33.648C57.7792 33.531 57.6051 33.3746 57.48 33.1787C57.3575 32.9801 57.2963 32.7584 57.2963 32.5136C57.2963 32.2769 57.3426 32.0688 57.4351 31.8893C57.5276 31.707 57.6609 31.556 57.835 31.4364C58.0091 31.3139 58.2185 31.2214 58.4633 31.1589C58.7082 31.0963 58.9816 31.065 59.2835 31.065H60.1608ZM64.3761 32.5707C64.3761 32.4619 64.3516 32.3613 64.3027 32.2688C64.2564 32.1736 64.1598 32.0879 64.013 32.0117C63.8688 31.9328 63.6511 31.8648 63.3601 31.8077C63.1152 31.756 62.8935 31.6948 62.695 31.6241C62.4991 31.5533 62.3318 31.4676 62.1931 31.367C62.057 31.2663 61.9523 31.148 61.8789 31.012C61.8054 30.876 61.7687 30.7168 61.7687 30.5346C61.7687 30.3605 61.8068 30.1959 61.8829 30.0408C61.9618 29.8858 62.072 29.7484 62.2135 29.6287C62.3576 29.509 62.5304 29.4152 62.7317 29.3472C62.933 29.2791 63.1574 29.2451 63.405 29.2451C63.7586 29.2451 64.0606 29.3077 64.3108 29.4328C64.5611 29.558 64.7529 29.7253 64.8862 29.9347C65.0195 30.1415 65.0861 30.3714 65.0861 30.6243H64.3312C64.3312 30.5019 64.2945 30.3836 64.2211 30.2693C64.1503 30.1524 64.0456 30.0558 63.9069 29.9796C63.7708 29.9035 63.6035 29.8654 63.405 29.8654C63.1955 29.8654 63.0255 29.898 62.8949 29.9633C62.767 30.0259 62.6732 30.1061 62.6133 30.2041C62.5562 30.302 62.5277 30.4054 62.5277 30.5142C62.5277 30.5958 62.5413 30.6692 62.5685 30.7345C62.5984 30.7971 62.6501 30.8556 62.7235 30.91C62.797 30.9617 62.9003 31.0106 63.0336 31.0569C63.1669 31.1031 63.337 31.1494 63.5437 31.1956C63.9055 31.2772 64.2034 31.3751 64.4373 31.4894C64.6713 31.6037 64.8454 31.7437 64.9596 31.9097C65.0739 32.0756 65.131 32.2769 65.131 32.5136C65.131 32.7067 65.0902 32.8836 65.0086 33.0441C64.9297 33.2046 64.8141 33.3433 64.6617 33.4603C64.5121 33.5745 64.3326 33.6643 64.1231 33.7296C63.9164 33.7921 63.6838 33.8234 63.4254 33.8234C63.0364 33.8234 62.7072 33.7541 62.4379 33.6153C62.1686 33.4766 61.9646 33.297 61.8258 33.0767C61.6871 32.8564 61.6177 32.6238 61.6177 32.3789H62.3767C62.3876 32.5857 62.4474 32.7503 62.5562 32.8727C62.665 32.9924 62.7983 33.0781 62.9561 33.1298C63.1139 33.1787 63.2703 33.2032 63.4254 33.2032C63.6321 33.2032 63.8048 33.176 63.9436 33.1216C64.085 33.0672 64.1925 32.9924 64.2659 32.8972C64.3394 32.802 64.3761 32.6931 64.3761 32.5707ZM67.7876 33.8234C67.4802 33.8234 67.2013 33.7717 66.9511 33.6684C66.7035 33.5623 66.49 33.414 66.3104 33.2236C66.1336 33.0332 65.9976 32.8074 65.9024 32.5462C65.8072 32.2851 65.7596 31.9995 65.7596 31.6893V31.518C65.7596 31.1589 65.8126 30.8392 65.9187 30.5591C66.0248 30.2761 66.169 30.0368 66.3512 29.8409C66.5335 29.645 66.7402 29.4968 66.9715 29.3961C67.2027 29.2955 67.4421 29.2451 67.6896 29.2451C68.0052 29.2451 68.2772 29.2995 68.5057 29.4084C68.7369 29.5172 68.926 29.6695 69.0729 29.8654C69.2198 30.0585 69.3286 30.287 69.3993 30.5509C69.4701 30.812 69.5054 31.0977 69.5054 31.4078V31.7465H66.2084V31.1303H68.7505V31.0732C68.7397 30.8773 68.6989 30.6869 68.6281 30.5019C68.5601 30.3169 68.4513 30.1646 68.3017 30.0449C68.1521 29.9252 67.948 29.8654 67.6896 29.8654C67.5182 29.8654 67.3605 29.9021 67.2163 29.9755C67.0721 30.0463 66.9483 30.1524 66.845 30.2938C66.7416 30.4353 66.6613 30.608 66.6042 30.812C66.5471 31.0161 66.5185 31.2514 66.5185 31.518V31.6893C66.5185 31.8988 66.5471 32.096 66.6042 32.281C66.6641 32.4633 66.7498 32.6238 66.8613 32.7625C66.9755 32.9012 67.1129 33.0101 67.2734 33.0889C67.4366 33.1678 67.6216 33.2073 67.8284 33.2073C68.0949 33.2073 68.3207 33.1529 68.5057 33.0441C68.6907 32.9352 68.8526 32.7897 68.9913 32.6074L69.4483 32.9706C69.3531 33.1148 69.232 33.2522 69.0851 33.3827C68.9382 33.5133 68.7573 33.6194 68.5424 33.701C68.3303 33.7826 68.0786 33.8234 67.7876 33.8234ZM73.0026 32.8849V27.4742H73.7615V33.7418H73.0678L73.0026 32.8849ZM70.032 31.5833V31.4976C70.032 31.1602 70.0728 30.8542 70.1544 30.5795C70.2387 30.302 70.3571 30.064 70.5094 29.8654C70.6644 29.6668 70.8481 29.5145 71.0603 29.4084C71.2752 29.2995 71.5145 29.2451 71.7784 29.2451C72.0559 29.2451 72.298 29.2941 72.5047 29.392C72.7142 29.4872 72.891 29.6273 73.0352 29.8123C73.1821 29.9946 73.2977 30.2149 73.382 30.4734C73.4664 30.7318 73.5249 31.0242 73.5575 31.3507V31.7261C73.5276 32.0498 73.4691 32.3409 73.382 32.5993C73.2977 32.8577 73.1821 33.0781 73.0352 33.2603C72.891 33.4426 72.7142 33.5827 72.5047 33.6806C72.2953 33.7758 72.0504 33.8234 71.7703 33.8234C71.5118 33.8234 71.2752 33.7677 71.0603 33.6561C70.8481 33.5446 70.6644 33.3882 70.5094 33.1869C70.3571 32.9856 70.2387 32.7489 70.1544 32.4769C70.0728 32.2021 70.032 31.9042 70.032 31.5833ZM70.7909 31.4976V31.5833C70.7909 31.8036 70.8127 32.0103 70.8562 32.2035C70.9025 32.3966 70.9732 32.5666 71.0684 32.7135C71.1636 32.8604 71.2847 32.9761 71.4316 33.0604C71.5785 33.142 71.7539 33.1828 71.958 33.1828C72.2082 33.1828 72.4136 33.1298 72.5741 33.0237C72.7373 32.9176 72.8679 32.7775 72.9658 32.6034C73.0638 32.4293 73.1399 32.2402 73.1943 32.0362V31.0528C73.1617 30.9032 73.1141 30.759 73.0515 30.6203C72.9917 30.4788 72.9128 30.3537 72.8149 30.2449C72.7196 30.1333 72.6013 30.0449 72.4599 29.9796C72.3211 29.9143 72.1565 29.8817 71.9661 29.8817C71.7594 29.8817 71.5812 29.9252 71.4316 30.0123C71.2847 30.0966 71.1636 30.2136 71.0684 30.3632C70.9732 30.5101 70.9025 30.6815 70.8562 30.8773C70.8127 31.0705 70.7909 31.2772 70.7909 31.4976ZM76.4754 31.5833V31.4894C76.4754 31.1711 76.5216 30.876 76.6141 30.6039C76.7066 30.3292 76.8399 30.0912 77.014 29.8899C77.1881 29.6858 77.3989 29.5281 77.6465 29.4165C77.894 29.3023 78.1715 29.2451 78.4789 29.2451C78.789 29.2451 79.0678 29.3023 79.3154 29.4165C79.5656 29.5281 79.7778 29.6858 79.9519 29.8899C80.1288 30.0912 80.2634 30.3292 80.3559 30.6039C80.4484 30.876 80.4946 31.1711 80.4946 31.4894V31.5833C80.4946 31.9015 80.4484 32.1967 80.3559 32.4687C80.2634 32.7407 80.1288 32.9788 79.9519 33.1828C79.7778 33.3841 79.567 33.5419 79.3195 33.6561C79.0746 33.7677 78.7972 33.8234 78.487 33.8234C78.1769 33.8234 77.8981 33.7677 77.6505 33.6561C77.403 33.5419 77.1908 33.3841 77.014 33.1828C76.8399 32.9788 76.7066 32.7407 76.6141 32.4687C76.5216 32.1967 76.4754 31.9015 76.4754 31.5833ZM77.2303 31.4894V31.5833C77.2303 31.8036 77.2561 32.0117 77.3078 32.2076C77.3595 32.4007 77.437 32.5721 77.5404 32.7217C77.6465 32.8713 77.7784 32.9897 77.9362 33.0767C78.094 33.161 78.2776 33.2032 78.487 33.2032C78.6938 33.2032 78.8747 33.161 79.0297 33.0767C79.1875 32.9897 79.3181 32.8713 79.4215 32.7217C79.5248 32.5721 79.6024 32.4007 79.6541 32.2076C79.7085 32.0117 79.7357 31.8036 79.7357 31.5833V31.4894C79.7357 31.2718 79.7085 31.0664 79.6541 30.8732C79.6024 30.6774 79.5235 30.5046 79.4174 30.355C79.314 30.2027 79.1834 30.083 79.0257 29.9959C78.8706 29.9089 78.6883 29.8654 78.4789 29.8654C78.2721 29.8654 78.0899 29.9089 77.9321 29.9959C77.777 30.083 77.6465 30.2027 77.5404 30.355C77.437 30.5046 77.3595 30.6774 77.3078 30.8732C77.2561 31.0664 77.2303 31.2718 77.2303 31.4894ZM82.0291 30.2693V33.7418H81.2742V29.3268H81.9882L82.0291 30.2693ZM81.8495 31.367L81.5353 31.3547C81.538 31.0528 81.5829 30.774 81.67 30.5182C81.757 30.2598 81.8794 30.0354 82.0372 29.845C82.195 29.6545 82.3827 29.5077 82.6003 29.4043C82.8207 29.2982 83.0641 29.2451 83.3307 29.2451C83.5484 29.2451 83.7442 29.2751 83.9183 29.3349C84.0924 29.392 84.2407 29.4845 84.3631 29.6124C84.4882 29.7402 84.5834 29.9062 84.6487 30.1102C84.714 30.3115 84.7466 30.5577 84.7466 30.8488V33.7418H83.9877V30.8406C83.9877 30.6094 83.9537 30.4244 83.8857 30.2857C83.8177 30.1442 83.7184 30.0422 83.5878 29.9796C83.4572 29.9143 83.2967 29.8817 83.1063 29.8817C82.9186 29.8817 82.7472 29.9211 82.5922 30C82.4398 30.0789 82.3079 30.1877 82.1964 30.3265C82.0875 30.4652 82.0019 30.6243 81.9393 30.8039C81.8794 30.9807 81.8495 31.1684 81.8495 31.367ZM90.0312 27.768V33.7418H89.2763V28.7106L87.7543 29.2655V28.5841L89.9129 27.768H90.0312ZM94.5648 27.768V33.7418H93.8099V28.7106L92.2879 29.2655V28.5841L94.4464 27.768H94.5648ZM102.306 31.8526H103.089C103.048 32.228 102.941 32.5639 102.767 32.8604C102.593 33.157 102.347 33.3923 102.028 33.5664C101.71 33.7377 101.313 33.8234 100.837 33.8234C100.489 33.8234 100.172 33.7581 99.886 33.6276C99.6031 33.497 99.3596 33.312 99.1556 33.0726C98.9516 32.8305 98.7938 32.5408 98.6823 32.2035C98.5735 31.8634 98.5191 31.4853 98.5191 31.0691V30.4774C98.5191 30.0612 98.5735 29.6845 98.6823 29.3472C98.7938 29.0071 98.953 28.716 99.1597 28.4739C99.3692 28.2318 99.6208 28.0455 99.9146 27.9149C100.208 27.7843 100.539 27.719 100.906 27.719C101.355 27.719 101.734 27.8034 102.045 27.972C102.355 28.1407 102.595 28.3746 102.767 28.6739C102.941 28.9704 103.048 29.3145 103.089 29.7062H102.306C102.268 29.4288 102.197 29.1907 102.094 28.9922C101.99 28.7908 101.843 28.6358 101.653 28.527C101.462 28.4182 101.214 28.3638 100.906 28.3638C100.642 28.3638 100.41 28.4141 100.208 28.5147C100.01 28.6154 99.8425 28.7582 99.7065 28.9432C99.5732 29.1282 99.4725 29.3499 99.4045 29.6083C99.3365 29.8667 99.3025 30.1537 99.3025 30.4693V31.0691C99.3025 31.3602 99.3324 31.6336 99.3923 31.8893C99.4548 32.145 99.5487 32.3694 99.6738 32.5626C99.799 32.7557 99.9581 32.908 100.151 33.0196C100.344 33.1284 100.573 33.1828 100.837 33.1828C101.171 33.1828 101.438 33.1298 101.637 33.0237C101.835 32.9176 101.985 32.7652 102.085 32.5666C102.189 32.3681 102.262 32.13 102.306 31.8526ZM104.701 27.4742V33.7418H103.942V27.4742H104.701ZM108.447 32.7217V29.3268H109.206V33.7418H108.484L108.447 32.7217ZM108.59 31.7914L108.904 31.7832C108.904 32.077 108.873 32.349 108.81 32.5993C108.75 32.8468 108.653 33.0617 108.517 33.244C108.381 33.4263 108.202 33.5691 107.982 33.6725C107.762 33.7731 107.494 33.8234 107.178 33.8234C106.963 33.8234 106.766 33.7921 106.586 33.7296C106.41 33.667 106.257 33.5704 106.129 33.4399C106.002 33.3093 105.902 33.1393 105.832 32.9298C105.764 32.7203 105.73 32.4687 105.73 32.1749V29.3268H106.484V32.1831C106.484 32.3817 106.506 32.5462 106.55 32.6768C106.596 32.8047 106.657 32.9067 106.733 32.9829C106.812 33.0563 106.899 33.108 106.995 33.1379C107.092 33.1678 107.193 33.1828 107.296 33.1828C107.617 33.1828 107.872 33.1216 108.06 32.9992C108.247 32.874 108.382 32.7067 108.463 32.4973C108.548 32.2851 108.59 32.0498 108.59 31.7914ZM112.038 29.3268V29.9062H109.651V29.3268H112.038ZM110.459 28.2536H111.214V32.6483C111.214 32.7979 111.237 32.9108 111.283 32.9869C111.33 33.0631 111.389 33.1134 111.463 33.1379C111.536 33.1624 111.615 33.1746 111.699 33.1746C111.762 33.1746 111.827 33.1692 111.895 33.1583C111.966 33.1447 112.019 33.1338 112.054 33.1257L112.059 33.7418C111.999 33.7609 111.92 33.7785 111.822 33.7949C111.727 33.8139 111.611 33.8234 111.475 33.8234C111.29 33.8234 111.12 33.7867 110.965 33.7133C110.81 33.6398 110.686 33.5174 110.594 33.346C110.504 33.1719 110.459 32.938 110.459 32.6442V28.2536ZM114.523 33.2032C114.703 33.2032 114.869 33.1665 115.021 33.093C115.173 33.0196 115.299 32.9189 115.397 32.7911C115.494 32.6605 115.55 32.5122 115.564 32.3463H116.282C116.268 32.6074 116.18 32.8509 116.017 33.0767C115.856 33.2998 115.645 33.4807 115.384 33.6194C115.123 33.7554 114.836 33.8234 114.523 33.8234C114.191 33.8234 113.902 33.7649 113.654 33.648C113.409 33.531 113.205 33.3705 113.042 33.1665C112.882 32.9625 112.761 32.7285 112.679 32.4646C112.6 32.198 112.561 31.9165 112.561 31.62V31.4486C112.561 31.1521 112.6 30.8719 112.679 30.608C112.761 30.3414 112.882 30.1061 113.042 29.9021C113.205 29.6981 113.409 29.5376 113.654 29.4206C113.902 29.3036 114.191 29.2451 114.523 29.2451C114.869 29.2451 115.171 29.3159 115.429 29.4573C115.688 29.5961 115.89 29.7865 116.037 30.0286C116.187 30.268 116.268 30.54 116.282 30.8447H115.564C115.55 30.6624 115.499 30.4978 115.409 30.3509C115.322 30.2041 115.202 30.0871 115.05 30C114.9 29.9103 114.725 29.8654 114.523 29.8654C114.292 29.8654 114.098 29.9116 113.94 30.0041C113.785 30.0939 113.661 30.2163 113.568 30.3714C113.479 30.5237 113.413 30.6937 113.373 30.8814C113.335 31.0664 113.316 31.2555 113.316 31.4486V31.62C113.316 31.8131 113.335 32.0035 113.373 32.1912C113.411 32.3789 113.475 32.549 113.564 32.7013C113.657 32.8536 113.781 32.9761 113.936 33.0685C114.094 33.1583 114.289 33.2032 114.523 33.2032ZM117.719 27.4742V33.7418H116.964V27.4742H117.719ZM117.539 31.367L117.225 31.3547C117.227 31.0528 117.272 30.774 117.359 30.5182C117.446 30.2598 117.569 30.0354 117.727 29.845C117.884 29.6545 118.072 29.5077 118.29 29.4043C118.51 29.2982 118.754 29.2451 119.02 29.2451C119.238 29.2451 119.434 29.2751 119.608 29.3349C119.782 29.392 119.93 29.4845 120.053 29.6124C120.178 29.7402 120.273 29.9062 120.338 30.1102C120.403 30.3115 120.436 30.5577 120.436 30.8488V33.7418H119.677V30.8406C119.677 30.6094 119.643 30.4244 119.575 30.2857C119.507 30.1442 119.408 30.0422 119.277 29.9796C119.147 29.9143 118.986 29.8817 118.796 29.8817C118.608 29.8817 118.437 29.9211 118.282 30C118.129 30.0789 117.997 30.1877 117.886 30.3265C117.777 30.4652 117.691 30.6243 117.629 30.8039C117.569 30.9807 117.539 31.1684 117.539 31.367ZM124.06 30.0204V33.7418H123.305V29.3268H124.039L124.06 30.0204ZM125.439 29.3023L125.435 30.0041C125.372 29.9905 125.313 29.9823 125.255 29.9796C125.201 29.9742 125.138 29.9715 125.068 29.9715C124.894 29.9715 124.74 29.9987 124.607 30.0531C124.473 30.1075 124.36 30.1836 124.268 30.2816C124.175 30.3795 124.102 30.4965 124.048 30.6325C123.996 30.7658 123.962 30.9127 123.946 31.0732L123.733 31.1956C123.733 30.929 123.759 30.6787 123.811 30.4448C123.865 30.2109 123.948 30.0041 124.06 29.8246C124.171 29.6423 124.313 29.5009 124.484 29.4002C124.658 29.2968 124.865 29.2451 125.104 29.2451C125.159 29.2451 125.221 29.2519 125.292 29.2655C125.363 29.2764 125.412 29.2887 125.439 29.3023ZM127.72 33.8234C127.413 33.8234 127.134 33.7717 126.884 33.6684C126.636 33.5623 126.423 33.414 126.243 33.2236C126.066 33.0332 125.93 32.8074 125.835 32.5462C125.74 32.2851 125.692 31.9995 125.692 31.6893V31.518C125.692 31.1589 125.745 30.8392 125.851 30.5591C125.957 30.2761 126.102 30.0368 126.284 29.8409C126.466 29.645 126.673 29.4968 126.904 29.3961C127.135 29.2955 127.375 29.2451 127.622 29.2451C127.938 29.2451 128.21 29.2995 128.438 29.4084C128.67 29.5172 128.859 29.6695 129.006 29.8654C129.152 30.0585 129.261 30.287 129.332 30.5509C129.403 30.812 129.438 31.0977 129.438 31.4078V31.7465H126.141V31.1303H128.683V31.0732C128.672 30.8773 128.632 30.6869 128.561 30.5019C128.493 30.3169 128.384 30.1646 128.234 30.0449C128.085 29.9252 127.881 29.8654 127.622 29.8654C127.451 29.8654 127.293 29.9021 127.149 29.9755C127.005 30.0463 126.881 30.1524 126.778 30.2938C126.674 30.4353 126.594 30.608 126.537 30.812C126.48 31.0161 126.451 31.2514 126.451 31.518V31.6893C126.451 31.8988 126.48 32.096 126.537 32.281C126.597 32.4633 126.682 32.6238 126.794 32.7625C126.908 32.9012 127.046 33.0101 127.206 33.0889C127.369 33.1678 127.554 33.2073 127.761 33.2073C128.028 33.2073 128.253 33.1529 128.438 33.0441C128.623 32.9352 128.785 32.7897 128.924 32.6074L129.381 32.9706C129.286 33.1148 129.165 33.2522 129.018 33.3827C128.871 33.5133 128.69 33.6194 128.475 33.701C128.263 33.7826 128.011 33.8234 127.72 33.8234ZM131.438 33.0604L132.646 29.3268H133.417L131.829 33.7418H131.323L131.438 33.0604ZM130.43 29.3268L131.674 33.0808L131.76 33.7418H131.254L129.655 29.3268H130.43ZM134.796 29.3268V33.7418H134.037V29.3268H134.796ZM133.98 28.1557C133.98 28.0332 134.017 27.9299 134.09 27.8455C134.166 27.7612 134.278 27.719 134.425 27.719C134.569 27.719 134.679 27.7612 134.755 27.8455C134.834 27.9299 134.874 28.0332 134.874 28.1557C134.874 28.2726 134.834 28.3733 134.755 28.4576C134.679 28.5392 134.569 28.58 134.425 28.58C134.278 28.58 134.166 28.5392 134.09 28.4576C134.017 28.3733 133.98 28.2726 133.98 28.1557ZM137.673 33.8234C137.366 33.8234 137.087 33.7717 136.836 33.6684C136.589 33.5623 136.375 33.414 136.196 33.2236C136.019 33.0332 135.883 32.8074 135.788 32.5462C135.693 32.2851 135.645 31.9995 135.645 31.6893V31.518C135.645 31.1589 135.698 30.8392 135.804 30.5591C135.91 30.2761 136.054 30.0368 136.237 29.8409C136.419 29.645 136.626 29.4968 136.857 29.3961C137.088 29.2955 137.328 29.2451 137.575 29.2451C137.891 29.2451 138.163 29.2995 138.391 29.4084C138.622 29.5172 138.811 29.6695 138.958 29.8654C139.105 30.0585 139.214 30.287 139.285 30.5509C139.356 30.812 139.391 31.0977 139.391 31.4078V31.7465H136.094V31.1303H138.636V31.0732C138.625 30.8773 138.584 30.6869 138.514 30.5019C138.446 30.3169 138.337 30.1646 138.187 30.0449C138.038 29.9252 137.833 29.8654 137.575 29.8654C137.404 29.8654 137.246 29.9021 137.102 29.9755C136.958 30.0463 136.834 30.1524 136.73 30.2938C136.627 30.4353 136.547 30.608 136.49 30.812C136.433 31.0161 136.404 31.2514 136.404 31.518V31.6893C136.404 31.8988 136.433 32.096 136.49 32.281C136.549 32.4633 136.635 32.6238 136.747 32.7625C136.861 32.9012 136.998 33.0101 137.159 33.0889C137.322 33.1678 137.507 33.2073 137.714 33.2073C137.98 33.2073 138.206 33.1529 138.391 33.0441C138.576 32.9352 138.738 32.7897 138.877 32.6074L139.334 32.9706C139.239 33.1148 139.117 33.2522 138.971 33.3827C138.824 33.5133 138.643 33.6194 138.428 33.701C138.216 33.7826 137.964 33.8234 137.673 33.8234ZM141.223 32.9584L142.358 29.3268H142.855L142.757 30.049L141.603 33.7418H141.117L141.223 32.9584ZM140.46 29.3268L141.427 32.9992L141.497 33.7418H140.986L139.705 29.3268H140.46ZM143.941 32.9706L144.863 29.3268H145.614L144.332 33.7418H143.827L143.941 32.9706ZM142.966 29.3268L144.075 32.8972L144.202 33.7418H143.72L142.533 30.0408L142.435 29.3268H142.966ZM148.793 32.5707C148.793 32.4619 148.768 32.3613 148.719 32.2688C148.673 32.1736 148.576 32.0879 148.429 32.0117C148.285 31.9328 148.068 31.8648 147.777 31.8077C147.532 31.756 147.31 31.6948 147.111 31.6241C146.916 31.5533 146.748 31.4676 146.61 31.367C146.474 31.2663 146.369 31.148 146.295 31.012C146.222 30.876 146.185 30.7168 146.185 30.5346C146.185 30.3605 146.223 30.1959 146.299 30.0408C146.378 29.8858 146.488 29.7484 146.63 29.6287C146.774 29.509 146.947 29.4152 147.148 29.3472C147.349 29.2791 147.574 29.2451 147.821 29.2451C148.175 29.2451 148.477 29.3077 148.727 29.4328C148.978 29.558 149.169 29.7253 149.303 29.9347C149.436 30.1415 149.503 30.3714 149.503 30.6243H148.748C148.748 30.5019 148.711 30.3836 148.638 30.2693C148.567 30.1524 148.462 30.0558 148.323 29.9796C148.187 29.9035 148.02 29.8654 147.821 29.8654C147.612 29.8654 147.442 29.898 147.311 29.9633C147.184 30.0259 147.09 30.1061 147.03 30.2041C146.973 30.302 146.944 30.4054 146.944 30.5142C146.944 30.5958 146.958 30.6692 146.985 30.7345C147.015 30.7971 147.067 30.8556 147.14 30.91C147.213 30.9617 147.317 31.0106 147.45 31.0569C147.583 31.1031 147.753 31.1494 147.96 31.1956C148.322 31.2772 148.62 31.3751 148.854 31.4894C149.088 31.6037 149.262 31.7437 149.376 31.9097C149.49 32.0756 149.547 32.2769 149.547 32.5136C149.547 32.7067 149.507 32.8836 149.425 33.0441C149.346 33.2046 149.231 33.3433 149.078 33.4603C148.929 33.5745 148.749 33.6643 148.54 33.7296C148.333 33.7921 148.1 33.8234 147.842 33.8234C147.453 33.8234 147.124 33.7541 146.854 33.6153C146.585 33.4766 146.381 33.297 146.242 33.0767C146.104 32.8564 146.034 32.6238 146.034 32.3789H146.793C146.804 32.5857 146.864 32.7503 146.973 32.8727C147.082 32.9924 147.215 33.0781 147.373 33.1298C147.53 33.1787 147.687 33.2032 147.842 33.2032C148.049 33.2032 148.221 33.176 148.36 33.1216C148.502 33.0672 148.609 32.9924 148.682 32.8972C148.756 32.802 148.793 32.6931 148.793 32.5707Z" fill="#17313B"/>
<defs>
<clipPath id="clip0_3335_561">
<rect width="19.2207" height="20.892" fill="white" transform="translate(11.2817 10.4462)"/>
</clipPath>
<clipPath id="clip1_3335_561">
<rect width="18.5179" height="20.892" fill="white" transform="translate(11.6328 10.4462)"/>
</clipPath>
<clipPath id="clip2_3335_561">
<rect width="13.3709" height="13.3709" fill="white" transform="translate(81.6709 7.52124)"/>
</clipPath>
<clipPath id="clip3_3335_561">
<rect width="13.3709" height="13.3709" fill="white" transform="translate(81.6709 7.52124)"/>
</clipPath>
<clipPath id="clip4_3335_561">
<rect width="13.3709" height="13.3709" fill="white" transform="translate(81.6709 7.52124)"/>
</clipPath>
<clipPath id="clip5_3335_561">
<rect width="13.3709" height="13.3709" fill="white" transform="translate(81.6709 7.52124)"/>
</clipPath>
<clipPath id="clip6_3335_561">
<rect width="13.3709" height="13.3709" fill="white" transform="translate(81.6709 7.52124)"/>
</clipPath>
<clipPath id="clip7_3335_561">
<rect width="13.3709" height="13.3709" fill="white" transform="translate(81.6709 7.52124)"/>
</clipPath>
<clipPath id="clip8_3335_561">
<rect width="13.3709" height="13.3709" fill="white" transform="translate(98.3848 7.52124)"/>
</clipPath>
<clipPath id="clip9_3335_561">
<rect width="13.3709" height="13.3709" fill="white" transform="translate(98.3848 7.52124)"/>
</clipPath>
<clipPath id="clip10_3335_561">
<rect width="13.3709" height="13.3709" fill="white" transform="translate(98.3848 7.52124)"/>
</clipPath>
<clipPath id="clip11_3335_561">
<rect width="13.3709" height="13.3709" fill="white" transform="translate(98.3848 7.52124)"/>
</clipPath>
<clipPath id="clip12_3335_561">
<rect width="13.3709" height="13.3709" fill="white" transform="translate(98.3848 7.52124)"/>
</clipPath>
<clipPath id="clip13_3335_561">
<rect width="13.3709" height="13.3709" fill="white" transform="translate(98.3848 7.52124)"/>
</clipPath>
<clipPath id="clip14_3335_561">
<rect width="13.3709" height="13.3709" fill="white" transform="translate(115.098 7.52124)"/>
</clipPath>
<clipPath id="clip15_3335_561">
<rect width="13.3709" height="13.3709" fill="white" transform="translate(115.098 7.52124)"/>
</clipPath>
<clipPath id="clip16_3335_561">
<rect width="13.3709" height="13.3709" fill="white" transform="translate(115.098 7.52124)"/>
</clipPath>
<clipPath id="clip17_3335_561">
<rect width="13.3709" height="13.3709" fill="white" transform="translate(115.098 7.52124)"/>
</clipPath>
<clipPath id="clip18_3335_561">
<rect width="13.3709" height="13.3709" fill="white" transform="translate(115.098 7.52124)"/>
</clipPath>
<clipPath id="clip19_3335_561">
<rect width="13.3709" height="13.3709" fill="white" transform="translate(115.098 7.52124)"/>
</clipPath>
<clipPath id="clip20_3335_561">
<rect width="13.3709" height="13.3709" fill="white" transform="translate(131.812 7.52124)"/>
</clipPath>
<clipPath id="clip21_3335_561">
<rect width="13.3709" height="13.3709" fill="white" transform="translate(131.812 7.52124)"/>
</clipPath>
<clipPath id="clip22_3335_561">
<rect width="13.3709" height="13.3709" fill="white" transform="translate(131.812 7.52124)"/>
</clipPath>
<clipPath id="clip23_3335_561">
<rect width="13.3709" height="13.3709" fill="white" transform="translate(131.812 7.52124)"/>
</clipPath>
<clipPath id="clip24_3335_561">
<rect width="13.3709" height="13.3709" fill="white" transform="translate(131.812 7.52124)"/>
</clipPath>
<clipPath id="clip25_3335_561">
<rect width="13.3709" height="13.3709" fill="white" transform="translate(131.812 7.52124)"/>
</clipPath>
<clipPath id="clip26_3335_561">
<rect width="13.3709" height="13.3709" fill="white" transform="translate(148.525 7.52124)"/>
</clipPath>
<clipPath id="clip27_3335_561">
<rect width="13.3709" height="13.3709" fill="white" transform="translate(148.525 7.52124)"/>
</clipPath>
<clipPath id="clip28_3335_561">
<rect width="13.3709" height="13.3709" fill="white" transform="translate(148.525 7.52124)"/>
</clipPath>
<clipPath id="clip29_3335_561">
<rect width="13.3709" height="13.3709" fill="white" transform="translate(148.525 7.52124)"/>
</clipPath>
<clipPath id="clip30_3335_561">
<rect width="13.3709" height="13.3709" fill="white" transform="translate(148.525 7.52124)"/>
</clipPath>
<clipPath id="clip31_3335_561">
<rect width="13.3709" height="13.3709" fill="white" transform="translate(148.525 7.52124)"/>
</clipPath>
</defs>
</svg>
